<svg width="64" height="65" viewBox="0 0 64 65" fill="none" xmlns="http://www.w3.org/2000/svg" id='form'>
<g id="&#208;&#152;&#208;&#186;&#208;&#190;&#208;&#189;&#208;&#186;&#208;&#176;">
<g id="Ellipse 1" filter="url(#filter0_d_123_1419)">
<ellipse cx="32" cy="30.5" rx="30" ry="30.5" fill="#EB6C44"/>
<path d="M59.5 30.5C59.5 46.0031 47.149 58.5 32 58.5C16.851 58.5 4.5 46.0031 4.5 30.5C4.5 14.9969 16.851 2.5 32 2.5C47.149 2.5 59.5 14.9969 59.5 30.5Z" stroke="white" stroke-width="5"/>
</g>
<path id="Vector" d="M32.5254 15C28.2159 15 25.4245 16.7246 23.2331 19.8002C22.8355 20.3581 22.9581 21.1231 23.5126 21.5338L25.8417 23.2587C26.4018 23.6734 27.1987 23.5765 27.6371 23.0399C28.9896 21.3851 29.9928 20.4323 32.1053 20.4323C33.7663 20.4323 35.8208 21.4764 35.8208 23.0495C35.8208 24.2388 34.8156 24.8496 33.1756 25.7476C31.263 26.7949 28.7321 28.0983 28.7321 31.3588V31.875C28.7321 32.574 29.3123 33.1406 30.0279 33.1406H33.9408C34.6564 33.1406 35.2366 32.574 35.2366 31.875V31.5706C35.2366 29.3104 42 29.2162 42 23.1C42.0001 18.494 37.1083 15 32.5254 15ZM31.9844 34.6941C29.9221 34.6941 28.2443 36.3328 28.2443 38.3471C28.2443 40.3613 29.9221 42 31.9844 42C34.0466 42 35.7244 40.3613 35.7244 38.347C35.7244 36.3328 34.0466 34.6941 31.9844 34.6941Z" fill="white"/>
</g>
<defs>
<filter id="filter0_d_123_1419" x="0" y="0" width="64" height="65" filterUnits="userSpaceOnUse" color-interpolation-filters="sRGB">
<feFlood flood-opacity="0" result="BackgroundImageFix"/>
<feColorMatrix in="SourceAlpha" type="matrix" values="0 0 0 0 0 0 0 0 0 0 0 0 0 0 0 0 0 0 127 0" result="hardAlpha"/>
<feOffset dy="2"/>
<feGaussianBlur stdDeviation="1"/>
<feColorMatrix type="matrix" values="0 0 0 0 1 0 0 0 0 1 0 0 0 0 1 0 0 0 0.15 0"/>
<feBlend mode="normal" in2="BackgroundImageFix" result="effect1_dropShadow_123_1419"/>
<feBlend mode="normal" in="SourceGraphic" in2="effect1_dropShadow_123_1419" result="shape"/>
</filter>
</defs>
</svg>
