<svg width="19" height="19" viewBox="0 0 19 19" fill="none" xmlns="http://www.w3.org/2000/svg">
<g clip-path="url(#clip0_2_33)">
<g filter="url(#filter0_d_2_33)">
<path d="M3.25 0C2.91848 0 2.60054 0.125111 2.36612 0.347811C2.1317 0.57051 2 0.872555 2 1.1875V17.8125C2 18.1274 2.1317 18.4295 2.36612 18.6522C2.60054 18.8749 2.91848 19 3.25 19H7V14.8438C7 14.6863 7.06585 14.5353 7.18306 14.4239C7.30027 14.3126 7.45924 14.25 7.625 14.25H11.375C11.5408 14.25 11.6997 14.3126 11.8169 14.4239C11.9342 14.5353 12 14.6863 12 14.8438V19H15.75C16.0815 19 16.3995 18.8749 16.6339 18.6522C16.8683 18.4295 17 18.1274 17 17.8125V1.1875C17 0.872555 16.8683 0.57051 16.6339 0.347811C16.3995 0.125111 16.0815 0 15.75 0H3.25ZM4.5 2.96875C4.5 2.81128 4.56585 2.66026 4.68306 2.54891C4.80027 2.43756 4.95924 2.375 5.125 2.375H6.375C6.54076 2.375 6.69973 2.43756 6.81694 2.54891C6.93415 2.66026 7 2.81128 7 2.96875V4.15625C7 4.31372 6.93415 4.46475 6.81694 4.57609C6.69973 4.68744 6.54076 4.75 6.375 4.75H5.125C4.95924 4.75 4.80027 4.68744 4.68306 4.57609C4.56585 4.46475 4.5 4.31372 4.5 4.15625V2.96875ZM8.25 2.96875C8.25 2.81128 8.3158 2.66026 8.4331 2.54891C8.5503 2.43756 8.7092 2.375 8.875 2.375H10.125C10.2908 2.375 10.4497 2.43756 10.5669 2.54891C10.6842 2.66026 10.75 2.81128 10.75 2.96875V4.15625C10.75 4.31372 10.6842 4.46475 10.5669 4.57609C10.4497 4.68744 10.2908 4.75 10.125 4.75H8.875C8.7092 4.75 8.5503 4.68744 8.4331 4.57609C8.3158 4.46475 8.25 4.31372 8.25 4.15625V2.96875ZM12.625 2.375H13.875C14.0408 2.375 14.1997 2.43756 14.3169 2.54891C14.4342 2.66026 14.5 2.81128 14.5 2.96875V4.15625C14.5 4.31372 14.4342 4.46475 14.3169 4.57609C14.1997 4.68744 14.0408 4.75 13.875 4.75H12.625C12.4592 4.75 12.3003 4.68744 12.1831 4.57609C12.0658 4.46475 12 4.31372 12 4.15625V2.96875C12 2.81128 12.0658 2.66026 12.1831 2.54891C12.3003 2.43756 12.4592 2.375 12.625 2.375ZM4.5 6.53125C4.5 6.37378 4.56585 6.22275 4.68306 6.11141C4.80027 6.00006 4.95924 5.9375 5.125 5.9375H6.375C6.54076 5.9375 6.69973 6.00006 6.81694 6.11141C6.93415 6.22275 7 6.37378 7 6.53125V7.71875C7 7.87622 6.93415 8.02724 6.81694 8.13859C6.69973 8.24994 6.54076 8.3125 6.375 8.3125H5.125C4.95924 8.3125 4.80027 8.24994 4.68306 8.13859C4.56585 8.02724 4.5 7.87622 4.5 7.71875V6.53125ZM8.875 5.9375H10.125C10.2908 5.9375 10.4497 6.00006 10.5669 6.11141C10.6842 6.22275 10.75 6.37378 10.75 6.53125V7.71875C10.75 7.87622 10.6842 8.02724 10.5669 8.13859C10.4497 8.24994 10.2908 8.3125 10.125 8.3125H8.875C8.7092 8.3125 8.5503 8.24994 8.4331 8.13859C8.3158 8.02724 8.25 7.87622 8.25 7.71875V6.53125C8.25 6.37378 8.3158 6.22275 8.4331 6.11141C8.5503 6.00006 8.7092 5.9375 8.875 5.9375ZM12 6.53125C12 6.37378 12.0658 6.22275 12.1831 6.11141C12.3003 6.00006 12.4592 5.9375 12.625 5.9375H13.875C14.0408 5.9375 14.1997 6.00006 14.3169 6.11141C14.4342 6.22275 14.5 6.37378 14.5 6.53125V7.71875C14.5 7.87622 14.4342 8.02724 14.3169 8.13859C14.1997 8.24994 14.0408 8.3125 13.875 8.3125H12.625C12.4592 8.3125 12.3003 8.24994 12.1831 8.13859C12.0658 8.02724 12 7.87622 12 7.71875V6.53125ZM5.125 9.5H6.375C6.54076 9.5 6.69973 9.56256 6.81694 9.6739C6.93415 9.78525 7 9.93628 7 10.0938V11.2812C7 11.4387 6.93415 11.5897 6.81694 11.7011C6.69973 11.8124 6.54076 11.875 6.375 11.875H5.125C4.95924 11.875 4.80027 11.8124 4.68306 11.7011C4.56585 11.5897 4.5 11.4387 4.5 11.2812V10.0938C4.5 9.93628 4.56585 9.78525 4.68306 9.6739C4.80027 9.56256 4.95924 9.5 5.125 9.5ZM8.25 10.0938C8.25 9.93628 8.3158 9.78525 8.4331 9.6739C8.5503 9.56256 8.7092 9.5 8.875 9.5H10.125C10.2908 9.5 10.4497 9.56256 10.5669 9.6739C10.6842 9.78525 10.75 9.93628 10.75 10.0938V11.2812C10.75 11.4387 10.6842 11.5897 10.5669 11.7011C10.4497 11.8124 10.2908 11.875 10.125 11.875H8.875C8.7092 11.875 8.5503 11.8124 8.4331 11.7011C8.3158 11.5897 8.25 11.4387 8.25 11.2812V10.0938ZM12.625 9.5H13.875C14.0408 9.5 14.1997 9.56256 14.3169 9.6739C14.4342 9.78525 14.5 9.93628 14.5 10.0938V11.2812C14.5 11.4387 14.4342 11.5897 14.3169 11.7011C14.1997 11.8124 14.0408 11.875 13.875 11.875H12.625C12.4592 11.875 12.3003 11.8124 12.1831 11.7011C12.0658 11.5897 12 11.4387 12 11.2812V10.0938C12 9.93628 12.0658 9.78525 12.1831 9.6739C12.3003 9.56256 12.4592 9.5 12.625 9.5Z" fill="#EB6B44"/>
</g>
</g>
<defs>
<filter id="filter0_d_2_33" x="-2" y="0" width="23" height="27" filterUnits="userSpaceOnUse" color-interpolation-filters="sRGB">
<feFlood flood-opacity="0" result="BackgroundImageFix"/>
<feColorMatrix in="SourceAlpha" type="matrix" values="0 0 0 0 0 0 0 0 0 0 0 0 0 0 0 0 0 0 127 0" result="hardAlpha"/>
<feOffset dy="4"/>
<feGaussianBlur stdDeviation="2"/>
<feComposite in2="hardAlpha" operator="out"/>
<feColorMatrix type="matrix" values="0 0 0 0 0.921569 0 0 0 0 0.419608 0 0 0 0 0.266667 0 0 0 0.1 0"/>
<feBlend mode="normal" in2="BackgroundImageFix" result="effect1_dropShadow_2_33"/>
<feBlend mode="normal" in="SourceGraphic" in2="effect1_dropShadow_2_33" result="shape"/>
</filter>
<clipPath id="clip0_2_33">
<rect width="19" height="19" fill="white"/>
</clipPath>
</defs>
</svg>
