<svg width="46" height="46" viewBox="0 0 46 46" fill="none" xmlns="http://www.w3.org/2000/svg" id='hospital'>
<g id="&#208;&#184;&#208;&#186;&#208;&#190;&#208;&#189;&#208;&#186;&#208;&#176;">
<circle id="Ellipse 14" cx="23" cy="23" r="23" fill="#2EBA6D"/>
<path id="Subtract" fill-rule="evenodd" clip-rule="evenodd" d="M5.56384 8H40.4361C36.2182 3.10153 29.9713 0 23 0C16.0287 0 9.78175 3.10153 5.56384 8Z" fill="#7C838A"/>
<path id="Vector" d="M34.3889 35.0234V36H12V35.0234C12 34.6999 12.2685 34.4375 12.5997 34.4375H13.5992V16.8594C13.5992 16.2122 14.1362 15.6875 14.7986 15.6875H19.1964V12.1719C19.1964 11.5247 19.7334 11 20.3958 11H25.9931C26.6555 11 27.1925 11.5247 27.1925 12.1719V15.6875H31.5903C32.2527 15.6875 32.7897 16.2122 32.7897 16.8594V34.4375H33.7892C34.1204 34.4375 34.3889 34.6999 34.3889 35.0234ZM27.3924 20.375H25.3934C25.0622 20.375 24.7937 20.6374 24.7937 20.9609V22.9141C24.7937 23.2376 25.0622 23.5 25.3934 23.5H27.3924C27.7235 23.5 27.9921 23.2376 27.9921 22.9141V20.9609C27.9921 20.6374 27.7235 20.375 27.3924 20.375ZM18.9965 23.5H20.9955C21.3267 23.5 21.5952 23.2376 21.5952 22.9141V20.9609C21.5952 20.6374 21.3267 20.375 20.9955 20.375H18.9965C18.6653 20.375 18.3968 20.6374 18.3968 20.9609V22.9141C18.3968 23.2376 18.6653 23.5 18.9965 23.5ZM24.1939 29.75H22.1949C21.8638 29.75 21.5952 30.0124 21.5952 30.3359V34.4375H24.7937V30.3359C24.7937 30.0124 24.5251 29.75 24.1939 29.75ZM27.3924 25.0625H25.3934C25.0622 25.0625 24.7937 25.3249 24.7937 25.6484V27.6016C24.7937 27.9251 25.0622 28.1875 25.3934 28.1875H27.3924C27.7235 28.1875 27.9921 27.9251 27.9921 27.6016V25.6484C27.9921 25.3249 27.7235 25.0625 27.3924 25.0625ZM21.5952 25.6484C21.5952 25.3249 21.3267 25.0625 20.9955 25.0625H18.9965C18.6653 25.0625 18.3968 25.3249 18.3968 25.6484V27.6016C18.3968 27.9251 18.6653 28.1875 18.9965 28.1875H20.9955C21.3267 28.1875 21.5952 27.9251 21.5952 27.6016V25.6484ZM21.0955 15.6875H22.3948V16.957C22.3948 17.0347 22.4264 17.1092 22.4827 17.1642C22.5389 17.2191 22.6152 17.25 22.6947 17.25H23.6942C23.7737 17.25 23.85 17.2191 23.9062 17.1642C23.9625 17.1092 23.994 17.0347 23.994 16.957V15.6875H25.2934C25.3729 15.6875 25.4492 15.6566 25.5054 15.6017C25.5617 15.5467 25.5933 15.4722 25.5933 15.3945V14.418C25.5933 14.3403 25.5617 14.2658 25.5054 14.2108C25.4492 14.1559 25.3729 14.125 25.2934 14.125H23.994V12.8555C23.994 12.7778 23.9625 12.7033 23.9062 12.6483C23.85 12.5934 23.7737 12.5625 23.6942 12.5625H22.6947C22.6152 12.5625 22.5389 12.5934 22.4827 12.6483C22.4264 12.7033 22.3948 12.7778 22.3948 12.8555V14.125H21.0955C21.016 14.125 20.9397 14.1559 20.8835 14.2108C20.8272 14.2658 20.7956 14.3403 20.7956 14.418V15.3945C20.7956 15.4722 20.8272 15.5467 20.8835 15.6017C20.9397 15.6566 21.016 15.6875 21.0955 15.6875Z" fill="white"/>
</g>
</svg>
