<svg width="20" height="20" viewBox="0 0 20 20" fill="none" xmlns="http://www.w3.org/2000/svg">
<g clip-path="url(#clip0_4_30)">
<path d="M11.5 19H8.5M14 10H6M11.5 1H8.5M5 19H3C1.8954 19 1 18.1046 1 17V15M15 19H17C18.105 19 19 18.1046 19 17V15M15 1H17C18.105 1 19 1.8954 19 3V5M5 1H3C1.8954 1 1 1.8954 1 3V5M1 11.5V8.5M19 11.5V8.5M10 14V6" stroke="white" stroke-width="2" stroke-linecap="round" stroke-linejoin="round"/>
</g>
<defs>
<clipPath id="clip0_4_30">
<rect width="20" height="20" fill="white"/>
</clipPath>
</defs>
</svg>
