<svg width="19" height="19" viewBox="0 0 19 19" fill="none" xmlns="http://www.w3.org/2000/svg">
<g filter="url(#filter0_d_1_10)">
<path fill-rule="evenodd" clip-rule="evenodd" d="M9.5 19C4.25303 19 0 14.747 0 9.5C0 4.25303 4.25303 0 9.5 0C14.747 0 19 4.25303 19 9.5C19 14.747 14.747 19 9.5 19ZM6.2344 9.04756V10.1211H7.2817V11.6696H6.2344V12.6819H7.2817V14.8438H8.4621V12.6819H10.8371V11.6696H8.4621V10.1211H9.9518C10.4057 10.1249 10.8577 10.0629 11.2937 9.937C11.707 9.81409 12.0656 9.62825 12.3708 9.37709C12.676 9.12712 12.917 8.81303 13.094 8.43422C13.2709 8.056 13.3594 7.61128 13.3594 7.10006C13.3594 6.58944 13.2762 6.15006 13.1088 5.78194C12.9414 5.41381 12.7104 5.10922 12.4153 4.86934C12.1202 4.62947 11.7663 4.45016 11.3531 4.33259C10.9063 4.21061 10.4447 4.15126 9.9815 4.15625H7.2817V9.04756H6.2344ZM9.9809 9.04756H8.4621V5.22975H9.9815C10.6596 5.22975 11.1934 5.37819 11.5817 5.67447C11.97 5.97075 12.1648 6.44634 12.1648 7.10006C12.1648 7.75437 11.97 8.24244 11.5817 8.56484C11.1934 8.88666 10.659 9.04756 9.9809 9.04756Z" fill="#EB6B44"/>
</g>
<defs>
<filter id="filter0_d_1_10" x="-4" y="0" width="27" height="27" filterUnits="userSpaceOnUse" color-interpolation-filters="sRGB">
<feFlood flood-opacity="0" result="BackgroundImageFix"/>
<feColorMatrix in="SourceAlpha" type="matrix" values="0 0 0 0 0 0 0 0 0 0 0 0 0 0 0 0 0 0 127 0" result="hardAlpha"/>
<feOffset dy="4"/>
<feGaussianBlur stdDeviation="2"/>
<feComposite in2="hardAlpha" operator="out"/>
<feColorMatrix type="matrix" values="0 0 0 0 0.921569 0 0 0 0 0.419608 0 0 0 0 0.266667 0 0 0 0.1 0"/>
<feBlend mode="normal" in2="BackgroundImageFix" result="effect1_dropShadow_1_10"/>
<feBlend mode="normal" in="SourceGraphic" in2="effect1_dropShadow_1_10" result="shape"/>
</filter>
</defs>
</svg>
