<svg width="64" height="64" viewBox="0 0 64 64" fill="none" xmlns="http://www.w3.org/2000/svg" id='notification'>
<g id="&#208;&#152;&#208;&#186;&#208;&#190;&#208;&#189;&#208;&#186;&#208;&#176;">
<g id="Ellipse 1" filter="url(#filter0_d_123_1432)">
<circle cx="32" cy="30" r="30" fill="white"/>
<circle cx="32" cy="30" r="27.5" stroke="#EB6B44" stroke-width="5"/>
</g>
<g id="Vector" filter="url(#filter1_d_123_1432)">
<path d="M36 38.25C36 40.3177 34.2056 42 32 42C29.7944 42 28 40.3177 28 38.25C28 36.1823 29.7944 34.5 32 34.5C34.2056 34.5 36 36.1823 36 38.25ZM28.463 19.1812L29.143 31.9312C29.175 32.5299 29.7021 33 30.3415 33H33.6585C34.2979 33 34.825 32.5299 34.857 31.9312L35.537 19.1812C35.5713 18.5386 35.0248 18 34.3385 18H29.6615C28.9752 18 28.4288 18.5386 28.463 19.1812Z" fill="#EB6B44"/>
<path d="M29.6423 31.9046L28.9623 19.1546L29.6423 31.9046ZM29.6423 31.9046C29.6423 31.9046 29.6423 31.9046 29.6423 31.9046M29.6423 31.9046L29.6423 31.9046M29.6423 31.9046C29.6586 32.2104 29.9394 32.5 30.3415 32.5H33.6585C34.0606 32.5 34.3414 32.2104 34.3577 31.9046C34.3577 31.9046 34.3577 31.9046 34.3577 31.9046M29.6423 31.9046L34.3577 31.9046M34.3577 31.9046L35.0377 19.1546C35.0377 19.1546 35.0377 19.1546 35.0377 19.1546C35.055 18.8304 34.7715 18.5 34.3385 18.5H29.6615C29.2285 18.5 28.945 18.8304 28.9623 19.1546L34.3577 31.9046ZM35.5 38.25C35.5 40.0117 33.9603 41.5 32 41.5C30.0397 41.5 28.5 40.0117 28.5 38.25C28.5 36.4883 30.0397 35 32 35C33.9603 35 35.5 36.4883 35.5 38.25Z" stroke="#EB6B44"/>
</g>
</g>
<defs>
<filter id="filter0_d_123_1432" x="0" y="0" width="64" height="64" filterUnits="userSpaceOnUse" color-interpolation-filters="sRGB">
<feFlood flood-opacity="0" result="BackgroundImageFix"/>
<feColorMatrix in="SourceAlpha" type="matrix" values="0 0 0 0 0 0 0 0 0 0 0 0 0 0 0 0 0 0 127 0" result="hardAlpha"/>
<feOffset dy="2"/>
<feGaussianBlur stdDeviation="1"/>
<feColorMatrix type="matrix" values="0 0 0 0 1 0 0 0 0 1 0 0 0 0 1 0 0 0 0.15 0"/>
<feBlend mode="normal" in2="BackgroundImageFix" result="effect1_dropShadow_123_1432"/>
<feBlend mode="normal" in="SourceGraphic" in2="effect1_dropShadow_123_1432" result="shape"/>
</filter>
<filter id="filter1_d_123_1432" x="24" y="18" width="16" height="32" filterUnits="userSpaceOnUse" color-interpolation-filters="sRGB">
<feFlood flood-opacity="0" result="BackgroundImageFix"/>
<feColorMatrix in="SourceAlpha" type="matrix" values="0 0 0 0 0 0 0 0 0 0 0 0 0 0 0 0 0 0 127 0" result="hardAlpha"/>
<feOffset dy="4"/>
<feGaussianBlur stdDeviation="2"/>
<feComposite in2="hardAlpha" operator="out"/>
<feColorMatrix type="matrix" values="0 0 0 0 0.921569 0 0 0 0 0.419608 0 0 0 0 0.266667 0 0 0 0.1 0"/>
<feBlend mode="normal" in2="BackgroundImageFix" result="effect1_dropShadow_123_1432"/>
<feBlend mode="normal" in="SourceGraphic" in2="effect1_dropShadow_123_1432" result="shape"/>
</filter>
</defs>
</svg>
