<svg width="19" height="19" viewBox="0 0 19 19" fill="none" xmlns="http://www.w3.org/2000/svg">
<g clip-path="url(#clip0_2_52)">
<g filter="url(#filter0_d_2_52)">
<path d="M5.9375 19V12.6884C5.225 12.3311 4.75 11.4975 4.75 10.6639V5.90048C4.75 5.06687 5.225 4.35235 5.9375 3.87601V3.51875C5.9375 2.2088 4.86875 1.13702 3.5625 1.13702C2.25625 1.13702 1.1875 2.2088 1.1875 3.51875C1.1875 4.8287 2.25625 5.90048 3.5625 5.90048H1.1875C0.59375 5.90048 0 6.49591 0 7.09134V11.8548C0 12.4502 0.59375 13.0457 1.1875 13.0457V19H5.9375ZM17.8125 5.90048H15.4375C16.7437 5.90048 17.8125 4.8287 17.8125 3.51875C17.8125 2.2088 16.7437 1.13702 15.4375 1.13702C14.1313 1.13702 13.0625 2.2088 13.0625 3.51875V3.87601C13.775 4.35235 14.25 5.06687 14.25 5.90048V10.6639C14.25 11.4975 13.775 12.3311 13.0625 12.6884V19H17.8125V13.0457C18.4062 13.0457 19 12.4502 19 11.8548V7.09134C19 6.49591 18.4062 5.90048 17.8125 5.90048ZM11.875 2.32788C11.8822 2.64506 11.826 2.96047 11.71 3.2556C11.5939 3.55073 11.4202 3.81962 11.1991 4.04651C10.9779 4.27339 10.7138 4.45368 10.4223 4.5768C10.1307 4.69992 9.8176 4.76338 9.5012 4.76346C9.1848 4.76354 8.8717 4.70023 8.58 4.57726C8.2884 4.45429 8.0242 4.27413 7.803 4.04736C7.5817 3.82059 7.4079 3.55178 7.2917 3.2567C7.1755 2.96163 7.1192 2.64625 7.1262 2.32907C7.1399 1.70677 7.396 1.11459 7.8397 0.679286C8.2834 0.243983 8.8793 0.000155726 9.5 7.45677e-08C10.1207 -0.000155577 10.7168 0.243373 11.1607 0.678453C11.6046 1.11353 11.861 1.70559 11.875 2.32788Z" fill="#EB6B44"/>
<path d="M11.8748 4.70959H7.1248C6.531 4.70959 5.93726 5.30503 5.93726 5.90046V10.6639C5.93726 11.2594 6.531 11.8548 7.1248 11.8548V19H11.8748V11.8548C12.4685 11.8548 13.0623 11.2594 13.0623 10.6639V5.90046C13.0623 5.30503 12.4685 4.70959 11.8748 4.70959Z" fill="#EB6B44"/>
</g>
</g>
<defs>
<filter id="filter0_d_2_52" x="-4" y="0" width="27" height="27" filterUnits="userSpaceOnUse" color-interpolation-filters="sRGB">
<feFlood flood-opacity="0" result="BackgroundImageFix"/>
<feColorMatrix in="SourceAlpha" type="matrix" values="0 0 0 0 0 0 0 0 0 0 0 0 0 0 0 0 0 0 127 0" result="hardAlpha"/>
<feOffset dy="4"/>
<feGaussianBlur stdDeviation="2"/>
<feComposite in2="hardAlpha" operator="out"/>
<feColorMatrix type="matrix" values="0 0 0 0 0.921569 0 0 0 0 0.419608 0 0 0 0 0.266667 0 0 0 0.1 0"/>
<feBlend mode="normal" in2="BackgroundImageFix" result="effect1_dropShadow_2_52"/>
<feBlend mode="normal" in="SourceGraphic" in2="effect1_dropShadow_2_52" result="shape"/>
</filter>
<clipPath id="clip0_2_52">
<rect width="19" height="19" fill="white"/>
</clipPath>
</defs>
</svg>
