<svg width="20" height="17" viewBox="0 0 20 17" fill="none" xmlns="http://www.w3.org/2000/svg" id='storage'>
<path d="M15.75 11H4.2625C4.125 11 4.0125 11.1125 4.0125 11.25L4.00938 12.75C4.00938 12.8875 4.12188 13 4.25938 13H15.75C15.8875 13 16 12.8875 16 12.75V11.25C16 11.1125 15.8875 11 15.75 11ZM15.75 14H4.25313C4.11563 14 4.00313 14.1125 4.00313 14.25L4 15.75C4 15.8875 4.1125 16 4.25 16H15.75C15.8875 16 16 15.8875 16 15.75V14.25C16 14.1125 15.8875 14 15.75 14ZM15.75 8.00001H4.26875C4.13125 8.00001 4.01875 8.11251 4.01875 8.25001L4.01562 9.75001C4.01562 9.88751 4.12813 10 4.26562 10H15.75C15.8875 10 16 9.88751 16 9.75001V8.25001C16 8.11251 15.8875 8.00001 15.75 8.00001ZM19.0781 3.65626L10.575 0.115639C10.3922 0.0398201 10.1963 0.000793457 9.99844 0.000793457C9.80057 0.000793457 9.60464 0.0398201 9.42188 0.115639L0.921875 3.65626C0.365625 3.89064 0 4.43439 0 5.04064V15.75C0 15.8875 0.1125 16 0.25 16H2.75C2.8875 16 3 15.8875 3 15.75V8.00001C3 7.45001 3.45625 7.00001 4.01875 7.00001H15.9812C16.5438 7.00001 17 7.45001 17 8.00001V15.75C17 15.8875 17.1125 16 17.25 16H19.75C19.8875 16 20 15.8875 20 15.75V5.04064C20 4.43439 19.6344 3.89064 19.0781 3.65626Z" fill="#525252"/>
<path d="M15.75 11H4.2625C4.125 11 4.0125 11.1125 4.0125 11.25L4.00938 12.75C4.00938 12.8875 4.12188 13 4.25938 13H15.75C15.8875 13 16 12.8875 16 12.75V11.25C16 11.1125 15.8875 11 15.75 11ZM15.75 14H4.25313C4.11563 14 4.00313 14.1125 4.00313 14.25L4 15.75C4 15.8875 4.1125 16 4.25 16H15.75C15.8875 16 16 15.8875 16 15.75V14.25C16 14.1125 15.8875 14 15.75 14ZM15.75 8H4.26875C4.13125 8 4.01875 8.1125 4.01875 8.25L4.01562 9.75C4.01562 9.8875 4.12812 10 4.26562 10H15.75C15.8875 10 16 9.8875 16 9.75V8.25C16 8.1125 15.8875 8 15.75 8Z" fill="#EB6B44"/>
</svg>
